<svg id="Grupo_3905" data-name="Grupo 3905" xmlns="http://www.w3.org/2000/svg" xmlns:xlink="http://www.w3.org/1999/xlink" width="98.158" height="21.171" viewBox="0 0 98.158 21.171">
  <defs>
    <clipPath id="clip-path">
      <rect id="Rectángulo_3435" data-name="Rectángulo 3435" width="98.158" height="21.171"/>
    </clipPath>
  </defs>
  <g id="Grupo_3883" data-name="Grupo 3883" clip-path="url(#clip-path)">
    <path id="Trazado_3193" data-name="Trazado 3193" d="M141.7,74.169h-.016c-.063,0-.125.016-.2.016-.344,0-.609-.187-.609-.937,0-.609,0-1.328,0-2.124,0-2.112.014-4.738.029-6.068-.006-.666-.276-1.413-1.249-1.413-.14,0-.359.016-.516.016a.464.464,0,0,0-.484.469.4.4,0,0,0,.437.406h.031a1.9,1.9,0,0,1,.25-.016c.625,0,.625.266.625,1.328,0,.906-.015,2.155-.015,2.952,0,.2-.016.281-.047.281s-.078-.078-.156-.187a3.139,3.139,0,0,0-2.468-1.124,3.721,3.721,0,0,0,0,7.434,3.252,3.252,0,0,0,2.608-1.312c.031-.031.047-.047.063-.047.046,0,.062.062.078.156a1.281,1.281,0,0,0,1.422,1.109c.2,0,.624-.047.624-.484a.416.416,0,0,0-.406-.453m-4.358.173a2.891,2.891,0,0,1,0-5.763,2.893,2.893,0,0,1,0,5.763" transform="translate(-113.556 -54.03)"/>
    <path id="Trazado_3194" data-name="Trazado 3194" d="M181,72.637c0,.017,0,.037,0,.055s0,.016,0,.023Z" transform="translate(-153.661 -61.665)"/>
    <path id="Trazado_3195" data-name="Trazado 3195" d="M204.628,95.922c-.642-.225-.754-.609-.754-1.782,0-.61.032-1.444.08-1.974a4.363,4.363,0,0,0,.016-.449,2.2,2.2,0,0,0-2.505-2.455c-1.38,0-2.728.691-2.728,1.3a.435.435,0,0,0,.449.433.447.447,0,0,0,.337-.16,2.529,2.529,0,0,1,1.878-.771c1.3,0,1.669.69,1.669,1.573,0,.08-.016.176-.016.257,0,.112-.064.161-.257.193a25.8,25.8,0,0,0-2.969.658,2.144,2.144,0,0,0-1.717,1.991,2.39,2.39,0,0,0,2.6,2.215,2.965,2.965,0,0,0,2.439-1.237.086.086,0,0,1,.064-.048c.032,0,.048.032.064.08a1.366,1.366,0,0,0,1.188,1.027.434.434,0,0,0,.433-.449.408.408,0,0,0-.274-.4m-1.589-2.632c0,2.471-1.524,2.809-2.343,2.809a1.534,1.534,0,0,1-1.717-1.348c0-1.124,1.332-1.445,3.851-1.847h.048c.112,0,.16.048.16.177Z" transform="translate(-168.188 -75.779)"/>
    <path id="Trazado_3196" data-name="Trazado 3196" d="M253.859,83.41H253.8c-.16.016-.305.032-.449.032-1.252,0-1.284-.85-1.285-2.1,0-1.188.048-2.841.048-3.451,0-.193,0-.225.257-.225h1.412a.417.417,0,0,0,.45-.434.413.413,0,0,0-.45-.417H252.35c-.209,0-.241,0-.241-.176,0,0,.032-1.284.032-1.749a.466.466,0,1,0-.931-.032v.4c0,.562-.016,1.332-.016,1.4,0,.144-.031.16-.176.16h-.931a.426.426,0,1,0,0,.851h.947c.113,0,.16.016.16.176V78.1c0,.787-.031,2.744-.031,3.772,0,.707,0,2.456,2.055,2.455.642,0,1.027-.081,1.027-.5a.4.4,0,0,0-.386-.417" transform="translate(-211.93 -63.154)"/>
    <path id="Trazado_3197" data-name="Trazado 3197" d="M296.852,95.922c-.642-.225-.754-.609-.754-1.782,0-.61.032-1.444.08-1.974a4.367,4.367,0,0,0,.016-.449,2.2,2.2,0,0,0-2.505-2.455c-1.38,0-2.728.691-2.728,1.3a.435.435,0,0,0,.449.433.447.447,0,0,0,.337-.16,2.529,2.529,0,0,1,1.878-.771c1.3,0,1.669.69,1.669,1.573,0,.08-.016.177-.016.257,0,.113-.064.161-.257.193a25.809,25.809,0,0,0-2.969.658,2.144,2.144,0,0,0-1.717,1.991,2.39,2.39,0,0,0,2.6,2.215,2.966,2.966,0,0,0,2.439-1.237.086.086,0,0,1,.064-.048c.032,0,.048.032.064.08a1.366,1.366,0,0,0,1.188,1.027.434.434,0,0,0,.433-.449.408.408,0,0,0-.274-.4m-1.589-2.632c0,2.471-1.524,2.809-2.343,2.809a1.534,1.534,0,0,1-1.717-1.348c0-1.124,1.332-1.445,3.851-1.847h.048c.112,0,.16.048.16.177Z" transform="translate(-246.481 -75.779)"/>
    <path id="Trazado_3198" data-name="Trazado 3198" d="M348.732,92.8c-.5-.257-1.268-.577-1.717-.786a1.237,1.237,0,0,1-.787-1.059c0-.53.465-1.028,1.3-1.028.1,0,1.525,0,1.525,1.283a.412.412,0,0,0,.45.417.4.4,0,0,0,.4-.385v-.032c-.016-.369-.016-.61-.016-.835,0-.241,0-.465.016-.8v-.016a.375.375,0,0,0-.4-.385.361.361,0,0,0-.368.257c-.016.048,0,.193-.081.193a.118.118,0,0,1-.1-.032,2.585,2.585,0,0,0-1.413-.433,1.871,1.871,0,0,0-.882,3.627c1.862.771,2.568,1.155,2.568,2.006,0,.77-.786,1.236-1.6,1.236-.915,0-1.718-.529-1.718-1.059,0-.113.032-.193.032-.3a.412.412,0,0,0-.433-.433.422.422,0,0,0-.449.418v.032c.016.385.032.626.032.866s-.016.482-.031.835v.032a.387.387,0,0,0,.417.385c.192,0,.385-.048.385-.449,0-.048.016-.081.048-.081a.2.2,0,0,1,.113.064,2.517,2.517,0,0,0,1.605.529,2.234,2.234,0,0,0,2.535-2.071,2.3,2.3,0,0,0-1.429-1.99" transform="translate(-292.937 -75.693)"/>
    <path id="Trazado_3199" data-name="Trazado 3199" d="M394.539,74.34c-.1,0-.176.016-.241.016a.594.594,0,0,1-.465-.193C390.927,71.5,390.51,71.115,390.51,71c0-.048.032-.1.129-.16.786-.514,2.021-1.349,2.968-1.991a.769.769,0,0,1,.4-.145c.225,0,.1.016.321.016h.016a.422.422,0,0,0,.449-.417.391.391,0,0,0-.466-.418c-.417.016-.8.016-1.155.016-.369,0-.723,0-1.124-.016h-.032a.408.408,0,0,0-.433.418c0,.385.385.385.674.385.08,0,.113.016.113.048,0,.016-.016.048-.064.08-2.535,1.75-2.6,1.766-2.776,1.766a.241.241,0,0,1-.273-.257s.031-3.4.031-5.473c0-.353-.112-1.2-1.429-1.2-.561,0-.85.048-.85.465a.438.438,0,0,0,.449.449h.369c.4.016.53.193.53.642,0,.867.017,1.942.017,3.066,0,1.958-.016,4.124-.046,5.81a.253.253,0,0,1-.273.273c-.257,0-.289-.016-.482-.016h-.016a.442.442,0,0,0-.465.45.415.415,0,0,0,.482.417c.369-.016.754-.032,1.155-.032.417,0,.835.016,1.252.032H390a.435.435,0,1,0,0-.867h-.016a4.064,4.064,0,0,1-.449.016.245.245,0,0,1-.273-.273c-.016-.77-.016-1.284-.017-1.669,0-.835.016-.979.257-.979a.573.573,0,0,1,.481.192c.5.513,1.814,1.733,2.665,2.567a.122.122,0,0,1,.032.064c0,.016,0,.113-.418.113a.376.376,0,0,0-.433.418.408.408,0,0,0,.433.417h.032c.369-.016.722-.032,1.075-.032s.738.015,1.155.032h.016a.429.429,0,0,0,.449-.45.4.4,0,0,0-.45-.417" transform="translate(-328.553 -54.038)"/>
    <path id="Trazado_3200" data-name="Trazado 3200" d="M454.189,94.989a.455.455,0,0,0-.321.144,2.875,2.875,0,0,1-2.327,1.06,2.622,2.622,0,0,1-2.7-2.824c0-.225.032-.289.193-.289.353,0,1.717.016,2.921.016.594,0,1.139,0,1.509-.016.819-.033,1.171-.482,1.171-1.076a2.991,2.991,0,0,0-3.163-2.631,3.67,3.67,0,0,0-3.578,3.885,3.586,3.586,0,0,0,3.628,3.787c2.022,0,3.145-1.221,3.145-1.59a.49.49,0,0,0-.481-.465m-2.7-4.815a2.016,2.016,0,0,1,2.2,1.669c0,.257-.145.434-.53.45-.449.016-1.348.016-2.183.016-1.861,0-2.006,0-2.006-.16a2.6,2.6,0,0,1,2.519-1.975" transform="translate(-380.243 -75.873)"/>
    <path id="Trazado_3201" data-name="Trazado 3201" d="M504.921,83.414h-.064c-.16.016-.305.032-.449.032-1.252,0-1.284-.851-1.284-2.1,0-1.187.048-2.841.048-3.45,0-.192,0-.225.257-.225h1.412a.426.426,0,1,0,0-.851h-1.428c-.209,0-.241,0-.241-.176,0,0,.032-1.284.032-1.75a.466.466,0,1,0-.931-.032v.4c0,.562-.016,1.332-.016,1.4,0,.144-.032.16-.176.16h-.931a.426.426,0,1,0,0,.851h.947c.113,0,.16.016.16.176V78.1c0,.787-.031,2.745-.031,3.772,0,.706,0,2.455,2.055,2.455.642,0,1.027-.081,1.027-.5a.4.4,0,0,0-.385-.417" transform="translate(-425.069 -63.158)"/>
    <path id="Trazado_3202" data-name="Trazado 3202" d="M547.487,94.733a.5.5,0,0,0-.417.241,2.526,2.526,0,0,1-2.054.931,3.017,3.017,0,0,1,0-6.018,2.108,2.108,0,0,1,1.637.657c.193.225.144.418.16.755a.425.425,0,0,0,.45.385.413.413,0,0,0,.465-.4V91.25c-.016-.369-.016-.626-.016-.866,0-.257,0-.5.016-.835v-.032a.415.415,0,0,0-.466-.4c-.176,0-.368.08-.384.273-.016.08-.032.176-.08.176-.032,0-.048-.016-.081-.032a3.631,3.631,0,0,0-5.424,3.452,3.649,3.649,0,0,0,3.773,3.787c1.733,0,2.936-1.076,2.936-1.541a.514.514,0,0,0-.514-.5" transform="translate(-459.53 -75.601)"/>
    <path id="Trazado_3203" data-name="Trazado 3203" d="M600.4,74.249h-.016c-.225,0-.209.016-.45.016-.192,0-.273-.113-.273-.289,0-1.268-.017-3.114-.033-3.788a2.542,2.542,0,0,0-2.681-2.567,3.006,3.006,0,0,0-2.375,1.092c-.032.032-.048.048-.064.048s-.032-.032-.032-.08c0-.225.015-1.669.015-2.969q0-.482,0-.915a1.119,1.119,0,0,0-1.091-1.22,3.49,3.49,0,0,0-.4-.032c-.69,0-.818.209-.818.482a.438.438,0,0,0,.449.449h.016a3.119,3.119,0,0,1,.353-.016c.418.016.546.241.546.658,0,.963.017,2.263.017,3.627,0,1.926-.015,3.948-.031,5.248a.241.241,0,0,1-.257.273c-.257,0-.305-.016-.514-.016h-.016a.441.441,0,0,0-.465.45.415.415,0,0,0,.481.417c.37-.016.77-.032,1.172-.032s.834.016,1.252.032h.016a.435.435,0,1,0-.017-.867,4.027,4.027,0,0,1-.449.016.245.245,0,0,1-.273-.273c0-.754-.016-1.46-.017-2.054,0-.577.016-1.059.016-1.364a2.344,2.344,0,0,1,2.39-2.1,1.8,1.8,0,0,1,1.846,1.893c.016.305.032,1.059.032,1.894,0,.594-.016,1.2-.016,1.733a.249.249,0,0,1-.257.273c-.257,0-.273-.016-.482-.016h-.016a.441.441,0,0,0-.465.449.415.415,0,0,0,.481.418c.37-.017.755-.033,1.156-.033.418,0,.835.016,1.252.032h.016a.435.435,0,1,0,0-.867" transform="translate(-502.73 -53.948)"/>
    <path id="Trazado_3204" data-name="Trazado 3204" d="M16.782,55.947l-1.836-1.37V46.408a1.477,1.477,0,0,0-1.475-1.475H1.475A1.477,1.477,0,0,0,0,46.408v8.7a1.477,1.477,0,0,0,1.475,1.475H6.828L4.107,58.609a.393.393,0,1,0,.47.629l2.911-2.17,2.911,2.17a.393.393,0,1,0,.47-.629L8.148,56.583H13.47a1.477,1.477,0,0,0,1.436-1.143l1.449,1.08a.357.357,0,1,0,.426-.572m-2.55-1.9-3.717-2.772a.357.357,0,1,0-.426.573l4.143,3.089v.172a.811.811,0,0,1-.488.761H1.749c-.693,0-1.035-.342-1.035-.761v-8.7a.762.762,0,0,1,.761-.761H13.47a.762.762,0,0,1,.761.761Z" transform="translate(0 -38.146)"/>
    <path id="Trazado_3205" data-name="Trazado 3205" d="M345.486,8.221h.543a5.42,5.42,0,0,0,1.164-.112,2.5,2.5,0,0,0,.862-.349,1.555,1.555,0,0,0,.538-.61,2.009,2.009,0,0,0,.186-.9,1.669,1.669,0,0,0-.694-1.483,3.528,3.528,0,0,0-2-.474q-.388,0-.849.031a5.313,5.313,0,0,0-.841.116v5.893h1.086Zm0-2.96c.178-.017.405-.026.678-.026a3.332,3.332,0,0,1,.581.047,1.479,1.479,0,0,1,.47.159.811.811,0,0,1,.31.31.985.985,0,0,1,.112.492.852.852,0,0,1-.419.829v0a2.669,2.669,0,0,1-1.2.219h-.527Z" transform="translate(-292.379 -3.636)"/>
    <path id="Trazado_3206" data-name="Trazado 3206" d="M379.958,18.274a1.974,1.974,0,0,0,.686-.482,2.165,2.165,0,0,0,.44-.753,2.908,2.908,0,0,0,.155-.974,2.8,2.8,0,0,0-.16-.969,2.217,2.217,0,0,0-.438-.746,1.953,1.953,0,0,0-.685-.479,2.247,2.247,0,0,0-.875-.168,2.206,2.206,0,0,0-.871.168,1.994,1.994,0,0,0-.685.479,2.186,2.186,0,0,0-.452.746,2.808,2.808,0,0,0-.159.969,2.846,2.846,0,0,0,.159.974,2.228,2.228,0,0,0,.444.753,1.988,1.988,0,0,0,.678.482,2.183,2.183,0,0,0,.879.172,2.212,2.212,0,0,0,.883-.172m-1.682-1.132a1.8,1.8,0,0,1-.288-1.077A1.759,1.759,0,0,1,378.276,15a1.024,1.024,0,0,1,1.612,0,1.755,1.755,0,0,1,.289,1.064,1.79,1.79,0,0,1-.291,1.077h0a1.017,1.017,0,0,1-1.612,0" transform="translate(-319.982 -11.633)"/>
    <path id="Trazado_3207" data-name="Trazado 3207" d="M415.006,14.442h-1.077q-.076.362-.182.781t-.221.853q-.116.436-.238.849c-.081.276-.159.527-.234.758q-.129-.4-.253-.819t-.232-.845q-.109-.422-.2-.823t-.172-.753H411.4q-.075.354-.177.753t-.212.823q-.112.423-.237.845t-.255.819c-.081-.23-.161-.482-.242-.758s-.158-.559-.234-.849-.147-.575-.216-.853-.13-.539-.182-.781h-1.106q.181.663.371,1.3t.382,1.215q.19.578.377,1.086t.363.9h.857q.226-.638.452-1.355t.426-1.478q.2.759.435,1.478t.461,1.355h.846q.181-.4.371-.9t.376-1.086q.19-.577.376-1.215t.371-1.3" transform="translate(-346.832 -12.261)"/>
    <path id="Trazado_3208" data-name="Trazado 3208" d="M455.513,17.761a1.929,1.929,0,0,0,.724.492,2.775,2.775,0,0,0,1.033.172,4.019,4.019,0,0,0,.457-.026c.151-.017.288-.039.419-.065a3.5,3.5,0,0,0,.344-.086,1.641,1.641,0,0,0,.237-.091l-.138-.853a2.834,2.834,0,0,1-.5.147,3.222,3.222,0,0,1-.693.069,1.459,1.459,0,0,1-.987-.3,1.19,1.19,0,0,1-.383-.841H459c.005-.057.01-.121.014-.193s0-.136,0-.194a2.5,2.5,0,0,0-.522-1.724,1.854,1.854,0,0,0-1.452-.578,2.073,2.073,0,0,0-.775.151,1.945,1.945,0,0,0-.673.452,2.194,2.194,0,0,0-.47.745,2.832,2.832,0,0,0-.176,1.043,3.03,3.03,0,0,0,.138.936,2.011,2.011,0,0,0,.423.742m.619-2.534h0a1.078,1.078,0,0,1,.194-.336.962.962,0,0,1,.306-.237.933.933,0,0,1,.423-.091.9.9,0,0,1,.4.082.83.83,0,0,1,.285.226.979.979,0,0,1,.177.337,1.389,1.389,0,0,1,.06.409h-1.94a1.851,1.851,0,0,1,.094-.391" transform="translate(-386.233 -11.622)"/>
    <path id="Trazado_3209" data-name="Trazado 3209" d="M491.763,14.824l.181-.879c-.052-.017-.12-.035-.207-.056s-.174-.03-.266-.047-.185-.026-.276-.035a2.243,2.243,0,0,0-.242-.013,4.668,4.668,0,0,0-1,.1,5.731,5.731,0,0,0-.753.211v4.292h1.043V14.781a2.368,2.368,0,0,1,.271-.06,2.132,2.132,0,0,1,.367-.035,2.6,2.6,0,0,1,.527.047,3.438,3.438,0,0,1,.358.09" transform="translate(-415.305 -11.709)"/>
    <path id="Trazado_3210" data-name="Trazado 3210" d="M512.63,13.687a2.076,2.076,0,0,0-.775.151,1.938,1.938,0,0,0-.672.452,2.2,2.2,0,0,0-.47.746,2.842,2.842,0,0,0-.176,1.043,3.02,3.02,0,0,0,.138.936,2.009,2.009,0,0,0,.421.738,1.928,1.928,0,0,0,.724.492,2.77,2.77,0,0,0,1.035.176,3.983,3.983,0,0,0,.457-.026c.151-.017.288-.038.419-.065a3.51,3.51,0,0,0,.344-.086,1.626,1.626,0,0,0,.237-.091l-.138-.853a2.848,2.848,0,0,1-.5.147,3.221,3.221,0,0,1-.694.069,1.459,1.459,0,0,1-.987-.3,1.19,1.19,0,0,1-.383-.841h2.974c.005-.057.01-.121.013-.193s0-.136,0-.194a2.5,2.5,0,0,0-.522-1.723,1.855,1.855,0,0,0-1.453-.578m-1.01,1.924a1.8,1.8,0,0,1,.095-.389h0a1.077,1.077,0,0,1,.194-.336.958.958,0,0,1,.307-.237.932.932,0,0,1,.422-.091.9.9,0,0,1,.4.082.83.83,0,0,1,.284.226.979.979,0,0,1,.177.337,1.385,1.385,0,0,1,.06.409Z" transform="translate(-433.42 -11.617)"/>
    <path id="Trazado_3211" data-name="Trazado 3211" d="M543.734,6.2a1.993,1.993,0,0,0,.72.47,2.625,2.625,0,0,0,.957.158,6.042,6.042,0,0,0,.986-.075,6.065,6.065,0,0,0,.78-.172V.025L546.134.2V2.361a2.606,2.606,0,0,0-.431-.172,1.955,1.955,0,0,0-.578-.075,2.042,2.042,0,0,0-.853.169,1.745,1.745,0,0,0-.63.478,2.132,2.132,0,0,0-.392.745,3.306,3.306,0,0,0-.133.97,2.84,2.84,0,0,0,.159.979,2.073,2.073,0,0,0,.457.742m.715-2.8h0a.934.934,0,0,1,.832-.388,1.431,1.431,0,0,1,.487.081,1.643,1.643,0,0,1,.367.177V5.85a2.841,2.841,0,0,1-.289.047,3.718,3.718,0,0,1-.426.021,1.115,1.115,0,0,1-.9-.392,1.635,1.635,0,0,1-.328-1.082,1.852,1.852,0,0,1,.261-1.053" transform="translate(-461.081 -0.021)"/>
    <path id="Trazado_3212" data-name="Trazado 3212" d="M593.848,6.8a2.625,2.625,0,0,0,.958-.163,1.964,1.964,0,0,0,.719-.474,2.1,2.1,0,0,0,.457-.745,2.828,2.828,0,0,0,.159-.979,3.276,3.276,0,0,0-.133-.961,2.205,2.205,0,0,0-.383-.745A1.665,1.665,0,0,0,595,2.255a2.245,2.245,0,0,0-1.431-.093,2.461,2.461,0,0,0-.444.172V0l-1.044.172V6.552a6.118,6.118,0,0,0,.78.172,6.048,6.048,0,0,0,.987.078m-.358-3.741a1.487,1.487,0,0,1,.487-.075.932.932,0,0,1,.828.388,1.852,1.852,0,0,1,.263,1.054,1.635,1.635,0,0,1-.325,1.074,1.115,1.115,0,0,1-.9.392,3.7,3.7,0,0,1-.427-.021,2.908,2.908,0,0,1-.289-.047V3.233a1.477,1.477,0,0,1,.366-.172" transform="translate(-502.649)"/>
    <path id="Trazado_3213" data-name="Trazado 3213" d="M621.823,19.679a1.7,1.7,0,0,1-.615-.121l-.189.836a1.58,1.58,0,0,0,.358.112,2.229,2.229,0,0,0,.479.052,2.257,2.257,0,0,0,.639-.081,1.448,1.448,0,0,0,.5-.264,2,2,0,0,0,.406-.457,4.685,4.685,0,0,0,.353-.664,32.877,32.877,0,0,0,1.618-4.655h-1.078q-.2.811-.438,1.677t-.514,1.634q-.164-.371-.329-.8t-.312-.866q-.146-.436-.272-.858t-.212-.785H621.1a22.774,22.774,0,0,0,.809,2.379q.452,1.121.948,2.069a1.588,1.588,0,0,1-.4.6.957.957,0,0,1-.635.191" transform="translate(-527.215 -12.256)"/>
  </g>
</svg>
