<svg id="Grupo_3906" data-name="Grupo 3906" xmlns="http://www.w3.org/2000/svg" xmlns:xlink="http://www.w3.org/1999/xlink" width="88.85" height="21.171" viewBox="0 0 88.85 21.171">
  <defs>
    <clipPath id="clip-path">
      <rect id="Rectángulo_3440" data-name="Rectángulo 3440" width="88.85" height="21.171" fill="none"/>
    </clipPath>
  </defs>
  <path id="Trazado_3214" data-name="Trazado 3214" d="M82.381,5.813h-4.7L77.674,6.82H79.45L79.4,12.15h1.172l.046-5.33h1.749Z" transform="translate(-59.345 -4.441)" fill="#4195d1"/>
  <g id="Grupo_3892" data-name="Grupo 3892" transform="translate(0 0)">
    <g id="Grupo_3891" data-name="Grupo 3891" transform="translate(0 0)" clip-path="url(#clip-path)">
      <path id="Trazado_3215" data-name="Trazado 3215" d="M103.6,9.613h.366a.491.491,0,0,1,.421.219l1.758,2.435,1.044-.62-1.8-2.354a1.951,1.951,0,0,0,.9-.632,1.615,1.615,0,0,0,.325-1.017,1.75,1.75,0,0,0-.531-1.323,2.269,2.269,0,0,0-1.621-.508h-2.005l-.064,6.337h1.2Zm.037-2.848h.678a1.2,1.2,0,0,1,.774.238.818.818,0,0,1,.3.678.976.976,0,0,1-.265.7,1.024,1.024,0,0,1-.778.279h-.723Z" transform="translate(-78.233 -4.441)" fill="#4195d1"/>
      <path id="Trazado_3216" data-name="Trazado 3216" d="M126.67,10.465h2.207l.623,1.8,1.145-.329-2.262-6.125H127.3l-2.436,6.136,1.09.318Zm1.152-3.431.735,2.479h-1.551Z" transform="translate(-95.402 -4.441)" fill="#4195d1"/>
      <path id="Trazado_3217" data-name="Trazado 3217" d="M155.094,7.056l.017-.025,2.881,4.817,1.187-.331.055-6.154h-1.172l.055,4.753L155.158,5.26l-1.09.33-.055,6.138h1.172Z" transform="translate(-117.671 -4.019)" fill="#4195d1"/>
      <path id="Trazado_3218" data-name="Trazado 3218" d="M183.114,10.9a1.476,1.476,0,0,1-.554-.121,3.063,3.063,0,0,1-.563-.3l-.467.888a3.359,3.359,0,0,0,1.726.485,2.145,2.145,0,0,0,1.51-.544,1.778,1.778,0,0,0,.592-1.367A1.347,1.347,0,0,0,185,8.818a11.058,11.058,0,0,0-1.328-.759q-.966-.494-.966-.988a.735.735,0,0,1,.3-.626,1.2,1.2,0,0,1,.733-.224,1.309,1.309,0,0,1,.54.1q.22.1.659.358l.495-.879a4.211,4.211,0,0,0-.888-.394,3.053,3.053,0,0,0-.9-.137,2.215,2.215,0,0,0-1.53.521,1.686,1.686,0,0,0-.586,1.316,1.462,1.462,0,0,0,.38,1.207,8.875,8.875,0,0,0,1.3.731q.921.448.921.941a.871.871,0,0,1-.27.654,1.031,1.031,0,0,1-.746.261" transform="translate(-138.695 -4.026)" fill="#4195d1"/>
      <path id="Trazado_3219" data-name="Trazado 3219" d="M207.624,7.745a1.825,1.825,0,0,0-.559-1.429,2.575,2.575,0,0,0-1.758-.5h-1.786l-.064,6.337h1.2l.009-2.482h.65a2.653,2.653,0,0,0,1.648-.5,1.679,1.679,0,0,0,.659-1.424m-1.543.7a1.189,1.189,0,0,1-.8.27h-.6l.018-1.951h.623a1.008,1.008,0,0,1,.824.3,1.032,1.032,0,0,1,.247.668.888.888,0,0,1-.316.71" transform="translate(-155.448 -4.441)" fill="#4195d1"/>
      <path id="Trazado_3220" data-name="Trazado 3220" d="M225.6,10.465H227.8l.623,1.8,1.145-.329L227.31,5.813h-1.08l-2.436,6.136,1.09.318Zm1.152-3.431.735,2.479h-1.551Z" transform="translate(-170.986 -4.441)" fill="#4195d1"/>
      <path id="Trazado_3221" data-name="Trazado 3221" d="M255.935,9.293a1.951,1.951,0,0,0,.9-.632,1.615,1.615,0,0,0,.325-1.017,1.75,1.75,0,0,0-.531-1.323,2.269,2.269,0,0,0-1.621-.508H253l-.064,6.337h1.2l.009-2.537h.366a.491.491,0,0,1,.421.219l1.758,2.435,1.044-.62Zm-1.044-.632h-.723l.018-1.9h.678a1.2,1.2,0,0,1,.774.238.818.818,0,0,1,.3.678.976.976,0,0,1-.265.7,1.024,1.024,0,0,1-.778.279" transform="translate(-193.255 -4.441)" fill="#4195d1"/>
      <path id="Trazado_3222" data-name="Trazado 3222" d="M281.114,11.143h-2.253l.009-1.74h2.207V8.45h-2.216l.037-1.63h2.216V5.813h-3.388l-.064,6.337h3.453Z" transform="translate(-212.143 -4.441)" fill="#4195d1"/>
      <path id="Trazado_3223" data-name="Trazado 3223" d="M299.157,7.056l.017-.025,2.881,4.817,1.187-.331.055-6.154h-1.172l.055,4.753L299.221,5.26l-1.09.33-.055,6.138h1.172Z" transform="translate(-227.741 -4.019)" fill="#4195d1"/>
      <path id="Trazado_3224" data-name="Trazado 3224" d="M330.239,11.854A3.7,3.7,0,0,0,331.3,11.7a3.264,3.264,0,0,0,.952-.458l-.467-.8a3.6,3.6,0,0,1-.71.3,3.226,3.226,0,0,1-.884.1,1.792,1.792,0,0,1-1.442-.694,2.481,2.481,0,0,1-.572-1.627,2.333,2.333,0,0,1,.568-1.609,1.89,1.89,0,0,1,1.484-.64,2.182,2.182,0,0,1,.815.169,2.236,2.236,0,0,1,.705.435L332.263,6a3.355,3.355,0,0,0-4.4.191,3.264,3.264,0,0,0-.907,2.387,3.165,3.165,0,0,0,.934,2.35,3.209,3.209,0,0,0,2.354.924" transform="translate(-249.802 -4.027)" fill="#4195d1"/>
      <path id="Trazado_3225" data-name="Trazado 3225" d="M353.345,11.727h1.227l.037-2.666,2.161-3.207-1.035-.6-1.722,2.676L352.356,5.26l-1.071.6,2.1,3.234Z" transform="translate(-268.394 -4.019)" fill="#4195d1"/>
      <path id="Trazado_3226" data-name="Trazado 3226" d="M84.194,45.923h1.172l.055-6.337H84.249Z" transform="translate(-64.327 -30.245)" fill="#4195d1"/>
      <path id="Trazado_3227" data-name="Trazado 3227" d="M100.358,39.136H99.186l.055,4.753-2.958-4.856-1.09.33L95.138,45.5H96.31l-.092-4.672.017-.025,2.881,4.817,1.187-.331Z" transform="translate(-72.689 -29.822)" fill="#4195d1"/>
      <path id="Trazado_3228" data-name="Trazado 3228" d="M123.928,45.923l.046-5.33h1.749l.009-1.007h-4.7l-.009,1.007H122.8l-.046,5.33Z" transform="translate(-92.467 -30.245)" fill="#4195d1"/>
      <path id="Trazado_3229" data-name="Trazado 3229" d="M144.737,45.923h3.453V44.916h-2.253l.009-1.74h2.207v-.953h-2.216l.037-1.63h2.216V39.586H144.8Z" transform="translate(-110.584 -30.245)" fill="#4195d1"/>
      <path id="Trazado_3230" data-name="Trazado 3230" d="M168.039,42.434a1.615,1.615,0,0,0,.325-1.017,1.749,1.749,0,0,0-.531-1.323,2.268,2.268,0,0,0-1.621-.508h-2.006l-.064,6.337h1.2l.009-2.537h.366a.491.491,0,0,1,.421.219L167.9,46.04l1.044-.62-1.8-2.354a1.951,1.951,0,0,0,.9-.632m-1.946,0h-.723l.018-1.9h.678a1.2,1.2,0,0,1,.774.238.818.818,0,0,1,.3.678.977.977,0,0,1-.265.7,1.024,1.024,0,0,1-.778.279" transform="translate(-125.41 -30.245)" fill="#4195d1"/>
      <path id="Trazado_3231" data-name="Trazado 3231" d="M188.953,40.8l2.881,4.817,1.187-.331.055-6.154H191.9l.055,4.753L189,39.033l-1.09.33-.055,6.138h1.172l-.092-4.672Z" transform="translate(-143.528 -29.822)" fill="#4195d1"/>
      <path id="Trazado_3232" data-name="Trazado 3232" d="M217.142,39.586h-1.08l-2.436,6.136,1.09.318.714-1.8h2.207l.623,1.8,1.145-.329Zm-1.377,3.7.817-2.479.735,2.479Z" transform="translate(-163.217 -30.245)" fill="#4195d1"/>
      <path id="Trazado_3233" data-name="Trazado 3233" d="M242.531,45.923l.046-5.33h1.749l.009-1.007h-4.7l-.009,1.007H241.4l-.046,5.33Z" transform="translate(-183.085 -30.245)" fill="#4195d1"/>
      <path id="Trazado_3234" data-name="Trazado 3234" d="M263.186,45.923h1.172l.055-6.337h-1.172Z" transform="translate(-201.083 -30.245)" fill="#4195d1"/>
      <path id="Trazado_3235" data-name="Trazado 3235" d="M278.78,39.984a3.6,3.6,0,0,0-4.867.014,3.314,3.314,0,0,0-.014,4.7,3.6,3.6,0,0,0,4.849-.018,3.137,3.137,0,0,0,.975-2.346,3.188,3.188,0,0,0-.943-2.35m-.888,4.009a2,2,0,0,1-1.566.681,2.034,2.034,0,0,1-1.575-.649,2.4,2.4,0,0,1-.6-1.691,2.26,2.26,0,0,1,.659-1.7,2.109,2.109,0,0,1,1.511-.64,2.019,2.019,0,0,1,1.571.663,2.612,2.612,0,0,1,0,3.336" transform="translate(-208.527 -29.83)" fill="#4195d1"/>
      <path id="Trazado_3236" data-name="Trazado 3236" d="M310.523,43.888l-2.958-4.856-1.09.33L306.42,45.5h1.172l-.092-4.672.017-.025L310.4,45.62l1.187-.331.055-6.154h-1.172Z" transform="translate(-234.116 -29.822)" fill="#4195d1"/>
      <path id="Trazado_3237" data-name="Trazado 3237" d="M336.2,44.238l.623,1.8,1.145-.329-2.262-6.125h-1.081l-2.436,6.136,1.09.318.714-1.8Zm-1.055-3.431.735,2.479H334.33Z" transform="translate(-253.805 -30.245)" fill="#4195d1"/>
      <path id="Trazado_3238" data-name="Trazado 3238" d="M360.654,39.586l-.055,6.337h3.654V44.916h-2.482l.055-5.33Z" transform="translate(-275.511 -30.245)" fill="#4195d1"/>
      <path id="Trazado_3239" data-name="Trazado 3239" d="M27.323,15.844a1.385,1.385,0,1,0,1.385-1.385,1.385,1.385,0,0,0-1.385,1.385" transform="translate(-20.876 -11.047)" fill="#4195d1"/>
      <path id="Trazado_3240" data-name="Trazado 3240" d="M12.852,1.255c-.017-.01,0,0-.015-.007l-.214.336.02.013A7.664,7.664,0,0,1,14.111,2.81a7.766,7.766,0,0,1,.648.787c0,.005,0,.01,0,.016,0,1.906-2.9,3.451-6.473,3.451a11.309,11.309,0,0,1-2.859-.355c.6-3.2,2.169-5.627,4.108-6.234A7.579,7.579,0,0,1,11.4.963a1.963,1.963,0,0,0,.174-.35,7.837,7.837,0,0,0-.766-.269A8.429,8.429,0,1,0,7.167,16.763a8.523,8.523,0,0,0,1.262.094,8.428,8.428,0,0,0,4.423-15.6M.922,8.045A7.681,7.681,0,0,1,1.043,6.71a3.364,3.364,0,0,0,.98,1.668C2.008,8.614,2,8.853,2,9.095a11.085,11.085,0,0,0,.665,3.8A7.6,7.6,0,0,1,.922,8.045M2.659,5.314a2.72,2.72,0,0,1-.727-1.059,7.665,7.665,0,0,1,3.8-3.3A9.864,9.864,0,0,0,2.659,5.314m13.249.671A7.633,7.633,0,0,1,9.844,15.57c-.726-.538-1.083-2.624-1.083-4.121,0-.227.012-.452.033-.675H8.78a15.492,15.492,0,0,1-3.061-.3A13.683,13.683,0,0,0,6.64,15.43c-.1-.025-.193-.047-.288-.076a13.728,13.728,0,0,1-1.168-5.317,11.75,11.75,0,0,0,3.408.373c3.98-.131,7.17-2.088,7.316-4.426" transform="translate(0 0)" fill="#4195d1"/>
      <path id="Trazado_3241" data-name="Trazado 3241" d="M84.386,76.349a.432.432,0,0,1-.159.035q-.183,0-.183-.256v-.471l.008-.815H84.6V74.6h-.545l.008-.737h-.32l-.008.737h-.345v.24h.34l0,.727v.572a.6.6,0,0,0,.1.376.383.383,0,0,0,.321.132.711.711,0,0,0,.254-.048,1.238,1.238,0,0,0,.243-.124l-.1-.2a1.1,1.1,0,0,1-.159.077" transform="translate(-63.714 -56.435)" fill="#4195d1"/>
      <path id="Trazado_3242" data-name="Trazado 3242" d="M91.478,73.663a.767.767,0,0,0-.365.1.9.9,0,0,0-.306.27l.012-1.322h-.332l-.016,3.005h.32l.016-1.394a1.293,1.293,0,0,1,.3-.282.553.553,0,0,1,.3-.086.408.408,0,0,1,.269.08.29.29,0,0,1,.1.236v.549l-.012.9h.32l0-.99v-.457a.652.652,0,0,0-.139-.451.6.6,0,0,0-.464-.154" transform="translate(-69.123 -55.552)" fill="#4195d1"/>
      <path id="Trazado_3243" data-name="Trazado 3243" d="M100.723,76.75a.814.814,0,0,0-.655.312,1.123,1.123,0,0,0-.258.74,1.179,1.179,0,0,0,.23.774.789.789,0,0,0,.643.278.9.9,0,0,0,.4-.093,1.372,1.372,0,0,0,.357-.26l-.156-.171a1.723,1.723,0,0,1-.286.213.565.565,0,0,1-.282.071.466.466,0,0,1-.427-.223,1.05,1.05,0,0,1-.138-.562V77.76h1.338V77.7a1.123,1.123,0,0,0-.192-.687.673.673,0,0,0-.577-.258m-.541.793a.814.814,0,0,1,.188-.389.456.456,0,0,1,.357-.164.379.379,0,0,1,.336.158.682.682,0,0,1,.108.395Z" transform="translate(-76.258 -58.64)" fill="#4195d1"/>
      <path id="Trazado_3244" data-name="Trazado 3244" d="M115.214,76.77a.942.942,0,0,0-.194-.02.735.735,0,0,0-.5.184.6.6,0,0,0-.208.473.729.729,0,0,0,.058.307.651.651,0,0,0,.194.234,2.494,2.494,0,0,0-.365.24.247.247,0,0,0-.1.18.2.2,0,0,0,.112.168.942.942,0,0,0,.369.1,2.385,2.385,0,0,0-.4.252.371.371,0,0,0-.14.3.441.441,0,0,0,.282.437,1.577,1.577,0,0,0,.639.124,1.282,1.282,0,0,0,.677-.192.592.592,0,0,0,.317-.529.4.4,0,0,0-.21-.377,1.827,1.827,0,0,0-.625-.18,2.971,2.971,0,0,1-.535-.108c-.08-.032-.12-.068-.12-.108a.13.13,0,0,1,.04-.084,1.517,1.517,0,0,1,.18-.148.82.82,0,0,0,.349.076.7.7,0,0,0,.5-.188.626.626,0,0,0,.2-.477.6.6,0,0,0-.034-.2.576.576,0,0,0-.11-.184l.473.012V76.83l-.665.012a.561.561,0,0,0-.178-.072M114.8,78.7a2.851,2.851,0,0,1,.651.166.256.256,0,0,1,.162.24.361.361,0,0,1-.214.333.967.967,0,0,1-.855.029.29.29,0,0,1-.18-.281.369.369,0,0,1,.092-.248,1.216,1.216,0,0,1,.345-.24m.515-.946a.372.372,0,0,1-.311.124.326.326,0,0,1-.274-.128.5.5,0,0,1-.1-.313.513.513,0,0,1,.11-.343.346.346,0,0,1,.274-.13.36.36,0,0,1,.3.12.541.541,0,0,1,.094.34.513.513,0,0,1-.1.328" transform="translate(-87.129 -58.64)" fill="#4195d1"/>
      <path id="Trazado_3245" data-name="Trazado 3245" d="M124.464,75.714h.321l.024-3.005h-.321Z" transform="translate(-95.095 -55.552)" fill="#4195d1"/>
      <path id="Trazado_3246" data-name="Trazado 3246" d="M129.241,76.75a.877.877,0,0,0-.711.316,1.239,1.239,0,0,0-.014,1.508.968.968,0,0,0,1.4-.036,1.24,1.24,0,0,0,.014-1.508.87.87,0,0,0-.685-.28m.4,1.653a.57.57,0,0,1-.439.21.522.522,0,0,1-.427-.208.948.948,0,0,1-.166-.6.877.877,0,0,1,.186-.6.569.569,0,0,1,.439-.21.522.522,0,0,1,.427.208.948.948,0,0,1,.166.6.877.877,0,0,1-.186.6" transform="translate(-98.001 -58.64)" fill="#4195d1"/>
      <path id="Trazado_3247" data-name="Trazado 3247" d="M139.778,73.663a.746.746,0,0,0-.373.092.722.722,0,0,0-.257.232l.008-1.278h-.32l-.024,3.005h.3l.02-.2a.646.646,0,0,0,.235.185.78.78,0,0,0,.958-.253,1.178,1.178,0,0,0,.25-.74,1.091,1.091,0,0,0-.246-.788.759.759,0,0,0-.555-.252m.285,1.6a.51.51,0,0,1-.425.24.6.6,0,0,1-.5-.32l.012-.887a.821.821,0,0,1,.234-.258.538.538,0,0,1,.325-.11.455.455,0,0,1,.375.2.964.964,0,0,1,.152.585.916.916,0,0,1-.172.548" transform="translate(-106.057 -55.552)" fill="#4195d1"/>
      <path id="Trazado_3248" data-name="Trazado 3248" d="M149.841,78.6a.2.2,0,0,1-.082.017.112.112,0,0,1-.116-.076.622.622,0,0,1-.028-.208l.032-1.075a.512.512,0,0,0-.128-.372.5.5,0,0,0-.373-.132.9.9,0,0,0-.35.06,3.519,3.519,0,0,0-.467.272l.132.208a2.223,2.223,0,0,1,.34-.224.555.555,0,0,1,.236-.052.3.3,0,0,1,.23.082.313.313,0,0,1,.074.218l-.008.252a1.919,1.919,0,0,0-.8.166.563.563,0,0,0-.366.545.569.569,0,0,0,.156.415.558.558,0,0,0,.419.16.62.62,0,0,0,.329-.089,1.085,1.085,0,0,0,.27-.24.411.411,0,0,0,.091.234.259.259,0,0,0,.209.095.5.5,0,0,0,.194-.038.8.8,0,0,0,.178-.106l-.088-.16a.712.712,0,0,1-.086.047m-.523-.276a1.141,1.141,0,0,1-.224.214.425.425,0,0,1-.248.078.371.371,0,0,1-.26-.088.326.326,0,0,1-.1-.252q0-.408.853-.517Z" transform="translate(-113.206 -58.64)" fill="#4195d1"/>
      <path id="Trazado_3249" data-name="Trazado 3249" d="M157.642,75.714h.321l.024-3.005h-.32Z" transform="translate(-120.444 -55.552)" fill="#4195d1"/>
      <path id="Trazado_3250" data-name="Trazado 3250" d="M167.621,77.014a.544.544,0,0,1,.433.24l.208-.167a.882.882,0,0,0-.29-.25.765.765,0,0,0-.363-.088.839.839,0,0,0-.667.314,1.1,1.1,0,0,0-.266.738,1.12,1.12,0,0,0,.25.768.81.81,0,0,0,.635.284.855.855,0,0,0,.673-.33l-.164-.187a.689.689,0,0,1-.2.18.487.487,0,0,1-.248.073.543.543,0,0,1-.421-.2.768.768,0,0,1-.176-.527.976.976,0,0,1,.178-.623.527.527,0,0,1,.423-.224" transform="translate(-127.346 -58.64)" fill="#4195d1"/>
      <path id="Trazado_3251" data-name="Trazado 3251" d="M175.7,76.75a.877.877,0,0,0-.711.316,1.239,1.239,0,0,0-.014,1.508.968.968,0,0,0,1.4-.036,1.24,1.24,0,0,0,.014-1.508.87.87,0,0,0-.685-.28m.4,1.653a.57.57,0,0,1-.439.21.522.522,0,0,1-.427-.208.948.948,0,0,1-.166-.6.877.877,0,0,1,.186-.6.569.569,0,0,1,.439-.21.521.521,0,0,1,.427.208.947.947,0,0,1,.166.6.876.876,0,0,1-.186.6" transform="translate(-133.495 -58.64)" fill="#4195d1"/>
      <path id="Trazado_3252" data-name="Trazado 3252" d="M186.346,78.6a.2.2,0,0,1-.082.017.112.112,0,0,1-.116-.076.622.622,0,0,1-.028-.208l.032-1.075a.512.512,0,0,0-.128-.372.5.5,0,0,0-.373-.132.9.9,0,0,0-.351.06,3.517,3.517,0,0,0-.467.272l.132.208a2.221,2.221,0,0,1,.341-.224.555.555,0,0,1,.236-.052.3.3,0,0,1,.23.082.314.314,0,0,1,.074.218l-.008.252a1.919,1.919,0,0,0-.8.166.563.563,0,0,0-.366.545.57.57,0,0,0,.155.415.558.558,0,0,0,.419.16.621.621,0,0,0,.33-.089,1.087,1.087,0,0,0,.269-.24.411.411,0,0,0,.091.234.259.259,0,0,0,.209.095.5.5,0,0,0,.194-.038.806.806,0,0,0,.178-.106l-.088-.16a.711.711,0,0,1-.086.047m-.523-.276a1.14,1.14,0,0,1-.224.214.425.425,0,0,1-.248.078.37.37,0,0,1-.26-.088.325.325,0,0,1-.1-.252q0-.408.853-.517Z" transform="translate(-141.097 -58.64)" fill="#4195d1"/>
      <path id="Trazado_3253" data-name="Trazado 3253" d="M194.148,75.714h.321l.024-3.005h-.32Z" transform="translate(-148.336 -55.552)" fill="#4195d1"/>
      <rect id="Rectángulo_3436" data-name="Rectángulo 3436" width="0.345" height="0.361" transform="translate(46.822 17.389)" fill="#4195d1"/>
      <path id="Trazado_3254" data-name="Trazado 3254" d="M198.427,78.853h.32l.016-2.035h-.32Z" transform="translate(-151.605 -58.691)" fill="#4195d1"/>
      <path id="Trazado_3255" data-name="Trazado 3255" d="M202.919,76.349a.432.432,0,0,1-.159.035q-.183,0-.183-.256v-.471l.008-.815h.549V74.6h-.545l.008-.737h-.32l-.008.737h-.345v.24h.34l0,.727v.572a.6.6,0,0,0,.1.376.383.383,0,0,0,.321.132.711.711,0,0,0,.254-.048,1.237,1.237,0,0,0,.243-.124l-.1-.2a1.1,1.1,0,0,1-.159.077" transform="translate(-154.277 -56.435)" fill="#4195d1"/>
      <rect id="Rectángulo_3437" data-name="Rectángulo 3437" width="0.345" height="0.361" transform="translate(49.286 17.389)" fill="#4195d1"/>
      <path id="Trazado_3256" data-name="Trazado 3256" d="M208.869,78.853h.32l.016-2.035h-.32Z" transform="translate(-159.583 -58.691)" fill="#4195d1"/>
      <path id="Trazado_3257" data-name="Trazado 3257" d="M213.646,76.75a.876.876,0,0,0-.711.316,1.239,1.239,0,0,0-.014,1.508.968.968,0,0,0,1.4-.036,1.24,1.24,0,0,0,.014-1.508.87.87,0,0,0-.685-.28m.4,1.653a.569.569,0,0,1-.439.21.522.522,0,0,1-.427-.208.948.948,0,0,1-.166-.6.877.877,0,0,1,.186-.6.569.569,0,0,1,.439-.21.522.522,0,0,1,.427.208.947.947,0,0,1,.166.6.876.876,0,0,1-.186.6" transform="translate(-162.489 -58.64)" fill="#4195d1"/>
      <path id="Trazado_3258" data-name="Trazado 3258" d="M224.237,76.75a.769.769,0,0,0-.366.1.956.956,0,0,0-.318.274l.016-.361h-.32l-.016,2.035h.32l.012-1.394a1.291,1.291,0,0,1,.3-.282.556.556,0,0,1,.3-.086.411.411,0,0,1,.269.08.289.289,0,0,1,.1.236V77.9l-.012.9h.321l0-.989v-.457a.65.65,0,0,0-.14-.451.606.606,0,0,0-.467-.154" transform="translate(-170.558 -58.64)" fill="#4195d1"/>
      <path id="Trazado_3259" data-name="Trazado 3259" d="M239.474,78.6a.2.2,0,0,1-.082.017.112.112,0,0,1-.116-.076.616.616,0,0,1-.028-.208l.032-1.075a.511.511,0,0,0-.128-.372.5.5,0,0,0-.373-.132.9.9,0,0,0-.35.06,3.5,3.5,0,0,0-.467.272l.132.208a2.222,2.222,0,0,1,.34-.224.555.555,0,0,1,.236-.052.3.3,0,0,1,.23.082.313.313,0,0,1,.074.218l-.008.252a1.919,1.919,0,0,0-.8.166.563.563,0,0,0-.367.545.57.57,0,0,0,.156.415.558.558,0,0,0,.419.16.62.62,0,0,0,.329-.089,1.079,1.079,0,0,0,.269-.24.413.413,0,0,0,.092.234.259.259,0,0,0,.209.095.5.5,0,0,0,.194-.038.8.8,0,0,0,.178-.106l-.088-.16a.711.711,0,0,1-.086.047m-.523-.276a1.147,1.147,0,0,1-.224.214.425.425,0,0,1-.248.078.371.371,0,0,1-.26-.088.326.326,0,0,1-.1-.252q0-.408.853-.517Z" transform="translate(-181.688 -58.64)" fill="#4195d1"/>
      <path id="Trazado_3260" data-name="Trazado 3260" d="M247.976,76.77a.942.942,0,0,0-.194-.02.735.735,0,0,0-.5.184.6.6,0,0,0-.208.473.729.729,0,0,0,.058.307.651.651,0,0,0,.194.234,2.5,2.5,0,0,0-.365.24.247.247,0,0,0-.1.18.2.2,0,0,0,.112.168.945.945,0,0,0,.369.1,2.392,2.392,0,0,0-.4.252.371.371,0,0,0-.14.3.441.441,0,0,0,.282.437,1.577,1.577,0,0,0,.639.124,1.283,1.283,0,0,0,.677-.192.592.592,0,0,0,.316-.529.4.4,0,0,0-.21-.377,1.827,1.827,0,0,0-.625-.18,2.98,2.98,0,0,1-.535-.108c-.08-.032-.12-.068-.12-.108a.13.13,0,0,1,.04-.084,1.516,1.516,0,0,1,.18-.148.819.819,0,0,0,.348.076.7.7,0,0,0,.5-.188.626.626,0,0,0,.2-.477.6.6,0,0,0-.034-.2.576.576,0,0,0-.11-.184l.473.012V76.83l-.665.012a.558.558,0,0,0-.178-.072m-.419,1.931a2.854,2.854,0,0,1,.651.166.256.256,0,0,1,.162.24.362.362,0,0,1-.214.333.941.941,0,0,1-.451.115.931.931,0,0,1-.4-.086.29.29,0,0,1-.18-.281.369.369,0,0,1,.092-.248,1.215,1.215,0,0,1,.345-.24m.515-.946a.372.372,0,0,1-.311.124.326.326,0,0,1-.274-.128.5.5,0,0,1-.1-.313.513.513,0,0,1,.11-.343.346.346,0,0,1,.274-.13.36.36,0,0,1,.3.12.541.541,0,0,1,.094.34.513.513,0,0,1-.1.328" transform="translate(-188.564 -58.64)" fill="#4195d1"/>
      <path id="Trazado_3261" data-name="Trazado 3261" d="M258.424,78.6a.2.2,0,0,1-.082.017.112.112,0,0,1-.116-.076.621.621,0,0,1-.028-.208l.032-1.075a.511.511,0,0,0-.128-.372.5.5,0,0,0-.373-.132.9.9,0,0,0-.35.06,3.516,3.516,0,0,0-.467.272l.132.208a2.22,2.22,0,0,1,.341-.224.555.555,0,0,1,.236-.052.3.3,0,0,1,.23.082.313.313,0,0,1,.074.218l-.008.252a1.919,1.919,0,0,0-.8.166.562.562,0,0,0-.366.545.57.57,0,0,0,.155.415.558.558,0,0,0,.419.16.62.62,0,0,0,.329-.089,1.081,1.081,0,0,0,.269-.24.413.413,0,0,0,.092.234.259.259,0,0,0,.209.095.5.5,0,0,0,.194-.038.8.8,0,0,0,.178-.106l-.088-.16a.7.7,0,0,1-.086.047m-.523-.276a1.145,1.145,0,0,1-.224.214.425.425,0,0,1-.248.078.371.371,0,0,1-.261-.088.326.326,0,0,1-.1-.252q0-.408.853-.517Z" transform="translate(-196.167 -58.64)" fill="#4195d1"/>
      <path id="Trazado_3262" data-name="Trazado 3262" d="M266.225,78.853h.321l.016-2.035h-.321Z" transform="translate(-203.405 -58.691)" fill="#4195d1"/>
      <rect id="Rectángulo_3438" data-name="Rectángulo 3438" width="0.345" height="0.361" transform="translate(62.82 17.389)" fill="#4195d1"/>
      <path id="Trazado_3263" data-name="Trazado 3263" d="M271.643,76.75a.769.769,0,0,0-.366.1.955.955,0,0,0-.317.274l.016-.361h-.321l-.016,2.035h.321l.012-1.394a1.3,1.3,0,0,1,.3-.282.556.556,0,0,1,.3-.086.411.411,0,0,1,.27.08.29.29,0,0,1,.1.236V77.9l-.012.9h.32l0-.989v-.457a.65.65,0,0,0-.14-.451.606.606,0,0,0-.467-.154" transform="translate(-206.778 -58.64)" fill="#4195d1"/>
      <path id="Trazado_3264" data-name="Trazado 3264" d="M280.331,77.07a.489.489,0,0,1,.294-.08.479.479,0,0,1,.184.038,2.164,2.164,0,0,1,.2.094l.14-.2a.949.949,0,0,0-.265-.126,1.091,1.091,0,0,0-.312-.042.715.715,0,0,0-.476.162.537.537,0,0,0-.193.434.481.481,0,0,0,.244.432q.221.1.451.208a.337.337,0,0,1,.231.308.27.27,0,0,1-.12.238.466.466,0,0,1-.268.082.619.619,0,0,1-.2-.033,1.054,1.054,0,0,1-.244-.131l-.136.208a1.411,1.411,0,0,0,.3.146,1.011,1.011,0,0,0,.324.05.7.7,0,0,0,.463-.166.543.543,0,0,0,.2-.438.506.506,0,0,0-.244-.448l-.453-.2q-.229-.1-.228-.276a.289.289,0,0,1,.11-.252" transform="translate(-213.823 -58.64)" fill="#4195d1"/>
      <path id="Trazado_3265" data-name="Trazado 3265" d="M287.782,76.349a.432.432,0,0,1-.159.035q-.183,0-.183-.256v-.471l.008-.815H288V74.6h-.545l.008-.737h-.32l-.008.737h-.345v.24h.34l0,.727v.572a.6.6,0,0,0,.1.376.383.383,0,0,0,.321.132.711.711,0,0,0,.254-.048,1.232,1.232,0,0,0,.243-.124l-.1-.2a1.1,1.1,0,0,1-.159.077" transform="translate(-219.115 -56.435)" fill="#4195d1"/>
      <path id="Trazado_3266" data-name="Trazado 3266" d="M299.432,77.014a.544.544,0,0,1,.433.24l.208-.167a.881.881,0,0,0-.29-.25.765.765,0,0,0-.363-.088.839.839,0,0,0-.667.314,1.1,1.1,0,0,0-.266.738,1.12,1.12,0,0,0,.25.768.81.81,0,0,0,.635.284.855.855,0,0,0,.673-.33l-.164-.187a.688.688,0,0,1-.2.18.487.487,0,0,1-.248.073.543.543,0,0,1-.421-.2.768.768,0,0,1-.176-.527.976.976,0,0,1,.178-.623.527.527,0,0,1,.423-.224" transform="translate(-228.054 -58.64)" fill="#4195d1"/>
      <path id="Trazado_3267" data-name="Trazado 3267" d="M307.508,76.75a.876.876,0,0,0-.711.316,1.239,1.239,0,0,0-.014,1.508.968.968,0,0,0,1.4-.036,1.24,1.24,0,0,0,.014-1.508.87.87,0,0,0-.685-.28m.4,1.653a.569.569,0,0,1-.439.21.522.522,0,0,1-.427-.208.948.948,0,0,1-.166-.6.877.877,0,0,1,.186-.6.569.569,0,0,1,.439-.21.521.521,0,0,1,.427.208.947.947,0,0,1,.166.6.876.876,0,0,1-.186.6" transform="translate(-234.203 -58.64)" fill="#4195d1"/>
      <path id="Trazado_3268" data-name="Trazado 3268" d="M317.65,76.884a.8.8,0,0,0-.21.291l-.008.02.008-.389h-.328l-.016,2h.321l.016-1.31a.949.949,0,0,1,.257-.325.444.444,0,0,1,.257-.1.548.548,0,0,1,.124.02l.1-.3a.5.5,0,0,0-.173-.028.492.492,0,0,0-.342.134" transform="translate(-242.272 -58.64)" fill="#4195d1"/>
      <path id="Trazado_3269" data-name="Trazado 3269" d="M323.813,76.884a.805.805,0,0,0-.211.291l-.008.02.008-.389h-.328l-.016,2h.32l.016-1.31a.945.945,0,0,1,.256-.325.444.444,0,0,1,.257-.1.547.547,0,0,1,.124.02l.1-.3a.5.5,0,0,0-.172-.028.491.491,0,0,0-.342.134" transform="translate(-246.981 -58.64)" fill="#4195d1"/>
      <path id="Trazado_3270" data-name="Trazado 3270" d="M330.721,78.382a1.285,1.285,0,0,1-.3.279.559.559,0,0,1-.3.085.408.408,0,0,1-.268-.08.289.289,0,0,1-.1-.236v-.547l.012-.9h-.32v.988l-.012.456a.645.645,0,0,0,.141.45.613.613,0,0,0,.47.154.785.785,0,0,0,.368-.1.95.95,0,0,0,.319-.272l-.016.321h.321l.016-2h-.321Z" transform="translate(-251.703 -58.822)" fill="#4195d1"/>
      <path id="Trazado_3271" data-name="Trazado 3271" d="M340.295,76.75a.756.756,0,0,0-.373.091.719.719,0,0,0-.257.23v-.265h-.32l-.024,3h.321l.016-1.214a.611.611,0,0,0,.231.185.779.779,0,0,0,.958-.253,1.178,1.178,0,0,0,.25-.74A1.091,1.091,0,0,0,340.85,77a.759.759,0,0,0-.555-.252m.285,1.6a.51.51,0,0,1-.425.24.6.6,0,0,1-.5-.32l.012-.887a.824.824,0,0,1,.234-.258.537.537,0,0,1,.325-.11.455.455,0,0,1,.375.2.964.964,0,0,1,.152.585.916.916,0,0,1-.172.548" transform="translate(-259.253 -58.64)" fill="#4195d1"/>
      <path id="Trazado_3272" data-name="Trazado 3272" d="M349.4,76.349a.432.432,0,0,1-.159.035q-.183,0-.183-.256v-.471l.008-.815h.549V74.6h-.545l.008-.737h-.32l-.008.737H348.4v.24h.34l0,.727v.572a.6.6,0,0,0,.1.376.383.383,0,0,0,.321.132.711.711,0,0,0,.254-.048,1.237,1.237,0,0,0,.243-.124l-.1-.2a1.1,1.1,0,0,1-.159.077" transform="translate(-266.194 -56.435)" fill="#4195d1"/>
      <path id="Trazado_3273" data-name="Trazado 3273" d="M355.35,78.853h.32l.016-2.035h-.32Z" transform="translate(-271.5 -58.691)" fill="#4195d1"/>
      <rect id="Rectángulo_3439" data-name="Rectángulo 3439" width="0.345" height="0.361" transform="translate(83.85 17.389)" fill="#4195d1"/>
      <path id="Trazado_3274" data-name="Trazado 3274" d="M360.127,76.75a.876.876,0,0,0-.711.316,1.239,1.239,0,0,0-.014,1.508.968.968,0,0,0,1.4-.036,1.24,1.24,0,0,0,.014-1.508.87.87,0,0,0-.685-.28m.4,1.653a.569.569,0,0,1-.439.21.522.522,0,0,1-.427-.208.948.948,0,0,1-.166-.6.877.877,0,0,1,.186-.6.569.569,0,0,1,.439-.21.522.522,0,0,1,.427.208.947.947,0,0,1,.166.6.876.876,0,0,1-.186.6" transform="translate(-274.406 -58.64)" fill="#4195d1"/>
      <path id="Trazado_3275" data-name="Trazado 3275" d="M371.185,76.9a.606.606,0,0,0-.467-.154.77.77,0,0,0-.366.1.956.956,0,0,0-.318.274l.016-.361h-.32l-.016,2.035h.32l.012-1.394a1.291,1.291,0,0,1,.3-.282.556.556,0,0,1,.3-.086.411.411,0,0,1,.269.08.289.289,0,0,1,.1.236V77.9l-.012.9h.321l0-.989v-.457a.65.65,0,0,0-.14-.451" transform="translate(-282.475 -58.64)" fill="#4195d1"/>
    </g>
  </g>
</svg>
