<svg xmlns="http://www.w3.org/2000/svg" width="53" height="53" viewBox="0 0 53 53">
  <g id="Grupo_3894" data-name="Grupo 3894" transform="translate(-1146 -169)">
    <g id="Grupo_1533" data-name="Grupo 1533" transform="translate(19.016 -1218.984)">
      <circle id="Elipse_15" data-name="Elipse 15" cx="26.5" cy="26.5" r="26.5" transform="translate(1126.984 1387.984)" fill="#3695d8"/>
    </g>
    <path id="Trazado_3214" data-name="Trazado 3214" d="M14.957,27.943a1.1,1.1,0,0,1-1.1-1.163l.832-13.854a1.1,1.1,0,0,1,2.011-.539l7.647,11.582a1.1,1.1,0,0,1-1.135,1.679l-4.27-.873-3.262,2.891A1.1,1.1,0,0,1,14.957,27.943Zm1.73-11.6-.476,7.925,1.69-1.5a1.1,1.1,0,0,1,.948-.254l2.213.452ZM7.63,24.3a1.094,1.094,0,0,1-.776-.321,13.167,13.167,0,1,1,22.477-9.309,1.1,1.1,0,0,1-1.1,1.1h0a1.1,1.1,0,0,1-1.1-1.1A10.972,10.972,0,1,0,8.406,22.424,1.1,1.1,0,0,1,7.63,24.3Zm3.1-3.1a1.094,1.094,0,0,1-.776-.321,8.778,8.778,0,1,1,14.984-6.206,1.1,1.1,0,0,1-1.1,1.1h0a1.1,1.1,0,0,1-1.1-1.1,6.583,6.583,0,1,0-11.238,4.655,1.1,1.1,0,0,1-.776,1.873Z" transform="translate(1156.333 180.779)" fill="#fff"/>
  </g>
</svg>
